<svg xmlns="http://www.w3.org/2000/svg" version="1.1" xmlns:xlink="http://www.w3.org/1999/xlink" xmlns:svgjs="http://svgjs.dev/svgjs" width="1500" height="1500" viewBox="0 0 1500 1500"><rect width="1500" height="1500" fill="#ffffff"></rect><g transform="matrix(0.6666666666666666,0,0,0.6666666666666666,250.03784248061874,382.9641025641026)"><svg viewBox="0 0 336 247" data-background-color="#ffffff" preserveAspectRatio="xMidYMid meet" height="1102" width="1500" xmlns="http://www.w3.org/2000/svg" xmlns:xlink="http://www.w3.org/1999/xlink"><g id="tight-bounds" transform="matrix(1,0,0,1,-0.012715073487896689,-0.09999999999999432)"><svg viewBox="0 0 336.0254301469758 247.2" height="247.2" width="336.0254301469758"><g><svg viewBox="0 0 397.4975999999999 292.422530869229" height="247.2" width="336.0254301469758"><g><rect width="397.4975999999999" height="8.364958001797152" x="0" y="150.08852176049538" fill="#000000" opacity="1" stroke-width="0" stroke="transparent" fill-opacity="1" class="rect-yte-0" data-fill-palette-color="primary" rx="1%" id="yte-0" data-palette-color="#264f0b"></rect></g><g><rect width="397.4975999999999" height="8.364958001797152" x="0" y="169.402377670404" fill="#000000" opacity="1" stroke-width="0" stroke="transparent" fill-opacity="1" class="rect-yte-1" data-fill-palette-color="primary" rx="1%" id="yte-1" data-palette-color="#264f0b"></rect></g><g transform="matrix(1,0,0,1,0.9887999999999693,199.6651314884241)"><svg viewBox="0 0 395.52 92.75739938080496" height="92.75739938080496" width="395.52"><g id="textblocktransform"><svg viewBox="0 0 395.52 92.75739938080496" height="92.75739938080496" width="395.52" id="textblock"><g><svg viewBox="0 0 395.52 92.75739938080496" height="92.75739938080496" width="395.52"><g transform="matrix(1,0,0,1,0,0)"><svg width="395.52" viewBox="2.1 -36.85 193.78 45.45" height="92.75739938080496" data-palette-color="#264f0b"><path d="M9.95 0.4L9.95 0.4Q8.15 0.4 5.93 0 3.7-0.4 2.1-1L2.1-1 2.1-4.7 4.3-4.2Q4.95-3.75 6.38-3.28 7.8-2.8 9.7-2.8L9.7-2.8Q12.55-2.8 13.9-3.98 15.25-5.15 15.25-6.85L15.25-6.85Q15.25-8.35 14.35-9.15 13.45-9.95 11.95-10.45 10.45-10.95 8.7-11.5L8.7-11.5Q6.9-12.1 5.4-12.9 3.9-13.7 3-14.98 2.1-16.25 2.1-18.2L2.1-18.2Q2.1-20.45 3.28-22.15 4.45-23.85 6.48-24.8 8.5-25.75 11.05-25.75L11.05-25.75Q12.5-25.75 14.28-25.4 16.05-25.05 18.15-24.35L18.15-24.35 18.15-21.35 15.5-21.7Q14.45-22 13.38-22.2 12.3-22.4 11.3-22.4L11.3-22.4Q9.85-22.4 8.72-21.95 7.6-21.5 6.95-20.7 6.3-19.9 6.3-18.85L6.3-18.85Q6.3-17.45 7.38-16.63 8.45-15.8 10-15.3 11.55-14.8 12.95-14.35L12.95-14.35Q14.6-13.85 16.07-13.05 17.55-12.25 18.5-10.95 19.45-9.65 19.45-7.55L19.45-7.55Q19.45-5.3 18.28-3.5 17.1-1.7 14.98-0.65 12.85 0.4 9.95 0.4ZM15.45-18.65L14.95-22.4 18.15-21.75 18.15-17.85 16.5-17.85Q16-17.85 15.75-18.07 15.5-18.3 15.45-18.65L15.45-18.65ZM4.8-6.8L5.3-3.05 2.1-3.7 2.1-7.6 3.75-7.6Q4.3-7.6 4.53-7.38 4.75-7.15 4.8-6.8L4.8-6.8ZM30.75 8.6L26.3 8.6 26.3-25.35 28.95-25.35Q29.95-25.35 30.15-24.4L30.15-24.4 30.55-21.4Q32.15-23.4 34.25-24.6 36.35-25.8 39.05-25.8L39.05-25.8Q42.15-25.8 44.3-24.2 46.45-22.6 47.55-19.7 48.65-16.8 48.65-12.85L48.65-12.85Q48.65-9.2 47.35-6.2 46.05-3.2 43.6-1.43 41.15 0.35 37.7 0.35L37.7 0.35Q35.35 0.35 33.7-0.43 32.05-1.2 30.75-2.65L30.75-2.65 30.75 8.6ZM36.7-3.1L36.7-3.1Q39.1-3.1 40.72-4.23 42.35-5.35 43.2-7.55 44.05-9.75 44.05-12.85L44.05-12.85Q44.05-17.45 42.45-19.83 40.85-22.2 37.6-22.2L37.6-22.2Q35.4-22.2 33.77-21.2 32.15-20.2 30.75-18.35L30.75-18.35 30.75-6.1Q32-4.45 33.45-3.78 34.9-3.1 36.7-3.1ZM22.7-25.35L27.8-25.35 27.25-21.45 23.5-22.25Q23.1-22.35 22.9-22.6 22.7-22.85 22.7-23.3L22.7-23.3 22.7-25.35ZM27.8 8.6L22.7 8.6 22.7 6.55Q22.7 6.1 22.9 5.83 23.1 5.55 23.5 5.5L23.5 5.5 27.25 4.7 27.8 8.6ZM34.35 8.6L29.25 8.6 29.8 4.7 33.55 5.5Q33.95 5.55 34.15 5.83 34.35 6.1 34.35 6.55L34.35 6.55 34.35 8.6ZM64.14 0.35L64.14 0.35Q60.49 0.35 57.77-1.3 55.05-2.95 53.55-6 52.05-9.05 52.05-13.2L52.05-13.2Q52.05-16.75 53.49-19.6 54.95-22.45 57.62-24.1 60.3-25.75 63.89-25.75L63.89-25.75Q67.05-25.75 69.39-24.35 71.75-22.95 73.07-20.43 74.39-17.9 74.39-14.4L74.39-14.4Q74.39-13.35 74.17-13 73.94-12.65 73.3-12.65L73.3-12.65 56.45-12.65Q56.45-12.5 56.45-12.33 56.45-12.15 56.45-12L56.45-12Q56.7-7.8 58.8-5.48 60.89-3.15 64.5-3.15L64.5-3.15Q66.05-3.15 67.57-3.78 69.09-4.4 70.27-5 71.44-5.6 71.94-5.6L71.94-5.6Q72.5-5.6 72.8-5.2L72.8-5.2 74.05-3.55Q73.05-2.25 71.37-1.38 69.69-0.5 67.8-0.08 65.89 0.35 64.14 0.35ZM56.59-15.45L56.59-15.45 70.39-15.45Q70.39-18.55 68.69-20.5 67-22.45 63.99-22.45L63.99-22.45Q60.74-22.45 58.89-20.6 57.05-18.75 56.59-15.45ZM85.54 0L81.09 0 81.09-36.85 85.54-36.85 85.54 0ZM82.59 0L77.49 0 77.49-2.05Q77.49-2.5 77.69-2.78 77.89-3.05 78.29-3.1L78.29-3.1 82.04-3.9 82.59 0ZM89.14 0L84.04 0 84.59-3.9 88.34-3.1Q88.74-3.05 88.94-2.78 89.14-2.5 89.14-2.05L89.14-2.05 89.14 0ZM77.49-36.85L82.59-36.85 82.04-32.95 78.29-33.75Q77.89-33.85 77.69-34.1 77.49-34.35 77.49-34.8L77.49-34.8 77.49-36.85ZM99.49 0L95.04 0 95.04-36.85 99.49-36.85 99.49 0ZM96.54 0L91.44 0 91.44-2.05Q91.44-2.5 91.64-2.78 91.84-3.05 92.24-3.1L92.24-3.1 95.99-3.9 96.54 0ZM103.09 0L97.99 0 98.54-3.9 102.29-3.1Q102.69-3.05 102.89-2.78 103.09-2.5 103.09-2.05L103.09-2.05 103.09 0ZM91.44-36.85L96.54-36.85 95.99-32.95 92.24-33.75Q91.84-33.85 91.64-34.1 91.44-34.35 91.44-34.8L91.44-34.8 91.44-36.85ZM112.89 0.4L112.89 0.4Q110.89 0.4 109.29-0.38 107.69-1.15 106.74-2.65 105.79-4.15 105.79-6.35L105.79-6.35Q105.79-7.85 106.61-9.22 107.44-10.6 109.29-11.7L109.29-11.7Q111.14-12.75 114.11-13.45 117.09-14.15 121.39-14.25L121.39-14.25 121.39-16.2Q121.39-19.15 120.11-20.68 118.84-22.2 116.39-22.2L116.39-22.2Q115.09-22.2 113.66-21.53 112.24-20.85 111.04-20.18 109.84-19.5 109.14-19.5L109.14-19.5Q108.69-19.5 108.36-19.75 108.04-20 107.84-20.35L107.84-20.35 107.04-21.75Q109.14-23.8 111.56-24.8 113.99-25.8 116.94-25.8L116.94-25.8Q119.79-25.8 121.74-24.6 123.69-23.4 124.71-21.25 125.74-19.1 125.74-16.2L125.74-16.2 125.74 0 123.79 0Q123.14 0 122.74-0.2 122.34-0.4 122.19-1.05L122.19-1.05 121.69-3.4Q119.69-1.6 117.69-0.6 115.69 0.4 112.89 0.4ZM114.19-2.75L114.19-2.75Q116.44-2.75 118.14-3.65 119.84-4.55 121.39-6.15L121.39-6.15 121.39-11.4Q118.79-11.35 116.69-11.03 114.59-10.7 113.11-10.13 111.64-9.55 110.86-8.68 110.09-7.8 110.09-6.55L110.09-6.55Q110.09-4.55 111.26-3.65 112.44-2.75 114.19-2.75ZM129.34 0L124.24 0 124.79-3.9 128.54-3.1Q128.94-3.05 129.14-2.78 129.34-2.5 129.34-2.05L129.34-2.05 129.34 0ZM143.79 0.35L143.79 0.35Q142.19 0.35 140.59 0.2 138.99 0.05 137.31-0.25 135.64-0.55 133.89-1L133.89-1 133.89-36.85 138.34-36.85 138.34-21.7Q139.89-23.5 141.96-24.63 144.04-25.75 146.64-25.75L146.64-25.75Q149.74-25.75 151.86-24.15 153.99-22.55 155.09-19.73 156.19-16.9 156.19-13.15L156.19-13.15Q156.19-9.2 154.94-6.15 153.69-3.1 150.96-1.38 148.24 0.35 143.79 0.35ZM143.74-3.1L143.74-3.1Q146.39-3.1 148.14-4.17 149.89-5.25 150.74-7.45 151.59-9.65 151.59-13L151.59-13Q151.59-17.5 150.01-19.85 148.44-22.2 145.14-22.2L145.14-22.2Q142.99-22.2 141.34-21.2 139.69-20.2 138.34-18.35L138.34-18.35 138.34-3.9Q139.84-3.55 141.16-3.33 142.49-3.1 143.74-3.1ZM130.29-36.85L135.39-36.85 134.84-32.95 131.09-33.75Q130.69-33.85 130.49-34.1 130.29-34.35 130.29-34.8L130.29-34.8 130.29-36.85ZM167.33 0L162.88 0 162.88-36.85 167.33-36.85 167.33 0ZM164.38 0L159.28 0 159.28-2.05Q159.28-2.5 159.48-2.78 159.68-3.05 160.08-3.1L160.08-3.1 163.83-3.9 164.38 0ZM170.93 0L165.83 0 166.38-3.9 170.13-3.1Q170.53-3.05 170.73-2.78 170.93-2.5 170.93-2.05L170.93-2.05 170.93 0ZM159.28-36.85L164.38-36.85 163.83-32.95 160.08-33.75Q159.68-33.85 159.48-34.1 159.28-34.35 159.28-34.8L159.28-34.8 159.28-36.85ZM185.63 0.35L185.63 0.35Q181.98 0.35 179.26-1.3 176.53-2.95 175.03-6 173.53-9.05 173.53-13.2L173.53-13.2Q173.53-16.75 174.98-19.6 176.43-22.45 179.11-24.1 181.78-25.75 185.38-25.75L185.38-25.75Q188.53-25.75 190.88-24.35 193.23-22.95 194.56-20.43 195.88-17.9 195.88-14.4L195.88-14.4Q195.88-13.35 195.66-13 195.43-12.65 194.78-12.65L194.78-12.65 177.93-12.65Q177.93-12.5 177.93-12.33 177.93-12.15 177.93-12L177.93-12Q178.18-7.8 180.28-5.48 182.38-3.15 185.98-3.15L185.98-3.15Q187.53-3.15 189.06-3.78 190.58-4.4 191.76-5 192.93-5.6 193.43-5.6L193.43-5.6Q193.98-5.6 194.28-5.2L194.28-5.2 195.53-3.55Q194.53-2.25 192.86-1.38 191.18-0.5 189.28-0.08 187.38 0.35 185.63 0.35ZM178.08-15.45L178.08-15.45 191.88-15.45Q191.88-18.55 190.18-20.5 188.48-22.45 185.48-22.45L185.48-22.45Q182.23-22.45 180.38-20.6 178.53-18.75 178.08-15.45Z" opacity="1" transform="matrix(1,0,0,1,0,0)" fill="#000000" class="wordmark-text-0" data-fill-palette-color="primary" id="text-0"></path></svg></g></svg></g></svg></g></svg></g><g transform="matrix(1,0,0,1,148.47792708067743,0)"><svg viewBox="0 0 100.54174583864507 128.19072594427246" height="128.19072594427246" width="100.54174583864507"><g><svg xmlns="http://www.w3.org/2000/svg" viewBox="0 0 40 51" x="0" y="0" height="128.19072594427246" width="100.54174583864507" class="icon-icon-0" data-fill-palette-color="accent" id="icon-0"><g data-name="Layer 2" fill="#fd6c23" data-fill-palette-color="accent"><g data-name="Layer 1" fill="#fd6c23" data-fill-palette-color="accent"><circle cx="13" cy="20.5" r="1.5" fill="#000000" data-fill-palette-color="accent"></circle><circle cx="27" cy="20.5" r="1.5" fill="#000000" data-fill-palette-color="accent"></circle><path d="M20 31.6A3.34 3.34 0 0 0 23.34 28.26 1 1 0 0 0 21.34 28.26 1.34 1.34 0 1 1 18.66 28.26 1 1 0 0 0 16.66 28.26 3.34 3.34 0 0 0 20 31.6" fill="#000000" data-fill-palette-color="accent"></path><path d="M20 25.09A2.77 2.77 0 0 0 21.72 24.52 1 1 0 1 0 20.48 23 0.89 0.89 0 0 1 19.48 23 1 1 0 1 0 18.25 24.58 2.82 2.82 0 0 0 20 25.09" fill="#000000" data-fill-palette-color="accent"></path><path d="M33.8 36.08L28.93 34.08A15.16 15.16 0 0 0 33.69 27.08 6 6 0 0 0 36.81 16.5C36.16 6.47 29.61 0 20 0S4.08 6.27 3.46 16.4A5.74 5.74 0 0 0 1 21.15 6 6 0 0 0 6.31 27.15 15.16 15.16 0 0 0 11.07 34.15L6.17 36.15C3.19 37.44 0 39.2 0 43V50A1 1 0 0 0 2 50V43C2 40.64 3.83 39.34 7 37.92L11 36.25A9 9 0 0 0 29 36.25L33 37.91C36.16 39.34 38 40.63 38 43V50A1 1 0 0 0 40 50V43C40 39.2 36.81 37.44 33.8 36.08M20 2C28.09 2 33.73 7.24 34.72 15.48L33.72 15.26 33.37 15.19A16.67 16.67 0 0 1 25.76 9.67 1 1 0 0 0 24.2 9.67C21.67 12.8 18.44 14.67 15.35 14.85A8.3 8.3 0 0 1 13.7 14.77C13.48 14.77 13.28 14.68 13.06 14.63A8.8 8.8 0 0 0 14.34 13.06 1 1 0 1 0 12.67 12 6.8 6.8 0 0 1 10.52 14.13 8 8 0 0 1 9.52 14.65 7.1 7.1 0 0 1 7.16 15.18 12.5 12.5 0 0 0 5.54 15.43C6.43 7 11.75 2 20 2M7.19 22.12A1 1 0 0 0 5.19 22.37 24 24 0 0 0 5.66 24.91 4 4 0 0 1 3 21.15 3.77 3.77 0 0 1 4.91 17.83C5 17.78 5.1 17.74 5.19 17.7V18.16A1 1 0 0 0 7.19 18.16V17.22H7.35A9 9 0 0 0 10.35 16.51C10.6 16.39 10.84 16.27 11.07 16.14A10.7 10.7 0 0 0 13.42 16.77 10.3 10.3 0 0 0 15.42 16.87 14.3 14.3 0 0 0 24.95 11.87 18 18 0 0 0 32.76 17.13S32.76 17.13 32.76 17.19V18.19A1 1 0 0 0 34.76 18.19V17.64A2.6 2.6 0 0 1 35.22 17.89 4 4 0 0 1 34.28 24.95 24 24 0 0 0 34.75 22.43 1 1 0 0 0 32.75 22.18C32.31 26 30.08 35 20 35S7.68 26 7.19 22.12M23.95 36.51A4 4 0 0 1 16.05 36.51 16.14 16.14 0 0 0 23.95 36.51M20 43A7 7 0 0 1 13 36V35.35C13.32 35.52 13.65 35.67 14 35.82A1 1 0 0 0 14 36 6 6 0 0 0 26 36 1 1 0 0 0 26 35.82C26.34 35.68 26.67 35.52 27 35.35V36A7 7 0 0 1 20 43" fill="#000000" data-fill-palette-color="accent"></path></g></g></svg></g></svg></g><g></g></svg></g><defs></defs></svg><rect width="336.0254301469758" height="247.2" fill="none" stroke="none" visibility="hidden"></rect></g></svg></g></svg>